<svg width="144" height="144" xmlns="http://www.w3.org/2000/svg" xmlns:xlink="http://www.w3.org/1999/xlink" xml:space="preserve" overflow="hidden"><g transform="translate(-324 -120)"><path d="M324 264 468 264 468 120 324 120Z" fill="#512BD4" fill-rule="evenodd"/><path d="M446.542 203.04 442.364 203.04 442.364 186.814 437.014 186.814 437.014 183.337 451.892 183.337 451.892 186.814 446.542 186.814ZM434.831 203.04 423.483 203.04 423.483 183.337 434.831 183.337 434.831 186.76 427.661 186.76 427.661 191.086 434.332 191.086 434.332 194.509 427.661 194.509 427.661 199.59 434.83 199.59ZM418.524 203.04 413.214 203.04 404.643 188.135 404.522 188.135C404.693 190.767 404.778 192.645 404.778 193.768L404.778 203.04 401.045 203.04 401.045 183.337 406.314 183.337 414.872 198.094 414.966 198.094C414.831 195.534 414.764 193.723 414.764 192.663L414.764 183.337 418.524 183.337ZM392.272 201.113C392.272 200.358 392.474 199.788 392.878 199.401 393.282 199.015 393.871 198.822 394.644 198.822 395.389 198.822 395.966 199.02 396.375 199.415 396.784 199.81 396.988 200.376 396.988 201.113 396.988 201.823 396.782 202.382 396.368 202.791 395.955 203.199 395.38 203.404 394.644 203.404 393.889 203.404 393.305 203.204 392.892 202.804 392.478 202.404 392.272 201.84 392.272 201.113M380.021 192.609 381.396 192.609C382.681 192.609 383.642 192.355 384.28 191.848 384.918 191.34 385.237 190.601 385.237 189.631 385.237 188.652 384.97 187.928 384.435 187.461 383.9 186.994 383.063 186.76 381.922 186.76L380.021 186.76ZM389.455 189.483C389.455 191.603 388.792 193.224 387.467 194.347 386.142 195.47 384.258 196.032 381.814 196.032L380.021 196.032 380.021 203.04 375.844 203.04 375.844 183.337 382.137 183.337C384.527 183.337 386.344 183.852 387.588 184.88 388.833 185.909 389.455 187.443 389.455 189.483M372.272 197.568C372.272 199.347 371.632 200.749 370.352 201.773 369.072 202.797 367.291 203.309 365.009 203.31 362.906 203.31 361.046 202.914 359.429 202.124L359.429 198.242C360.759 198.835 361.884 199.253 362.805 199.496 363.726 199.738 364.568 199.86 365.332 199.86 366.248 199.86 366.951 199.684 367.441 199.334 367.931 198.984 368.175 198.462 368.175 197.771 368.175 197.384 368.068 197.041 367.852 196.74 367.636 196.439 367.32 196.149 366.902 195.87 366.484 195.592 365.633 195.147 364.348 194.536 363.144 193.97 362.241 193.427 361.639 192.906 361.037 192.384 360.557 191.778 360.197 191.086 359.838 190.394 359.658 189.586 359.658 188.66 359.658 186.918 360.249 185.548 361.43 184.55 362.612 183.553 364.245 183.054 366.329 183.054 367.353 183.054 368.33 183.175 369.26 183.418 370.19 183.66 371.163 184.002 372.178 184.442L370.83 187.69C369.779 187.259 368.91 186.958 368.223 186.787 367.535 186.617 366.859 186.531 366.195 186.531 365.404 186.531 364.797 186.715 364.375 187.084 363.953 187.452 363.742 187.933 363.742 188.526 363.742 188.894 363.827 189.215 363.998 189.489 364.169 189.763 364.44 190.028 364.813 190.284 365.186 190.541 366.069 191.001 367.461 191.666 369.303 192.546 370.566 193.429 371.248 194.314 371.931 195.199 372.272 196.284 372.272 197.568M353.661 203.04 352.233 198.35 345.05 198.35 343.621 203.04 339.12 203.04 346.074 183.256 351.181 183.256 358.162 203.04ZM351.235 194.846C349.915 190.597 349.171 188.193 349.005 187.636 348.839 187.079 348.72 186.639 348.648 186.316 348.352 187.466 347.502 190.309 346.101 194.846Z" fill="#FFFFFF" fill-rule="evenodd"/></g></svg>