<?xml version="1.0" encoding="UTF-8"?>
<svg xmlns="http://www.w3.org/2000/svg" viewBox="0 0 1498.6233480176 250">
  <g>
    <path d="M1477.1475770925,195.2092511013c5.781938326,0,15.4185022026-.8259911894,21.4757709251-1.9273127753v-29.7356828194c-4.6806167401.550660793-9.6365638767,1.3766519824-14.5925110132,1.3766519824-12.3898678414,0-19.8237885463-5.781938326-19.8237885463-20.0991189427v-62.7753303965h32.2136563877v-28.0837004405h-32.2136563877V15.4185022026h-34.140969163v38.5462555066h-19.2731277533v28.0837004405h19.2731277533v66.3546255507c0,31.6629955947,17.8964757709,46.8061674009,47.0814977974,46.8061674009ZM1224.9449339207,42.4008810573c11.8392070485,0,21.4757709251-8.5352422907,21.4757709251-21.2004405286s-9.6365638767-21.2004405286-21.4757709251-21.2004405286-21.4757709251,8.5352422907-21.4757709251,21.2004405286,9.6365638766,21.2004405286,21.4757709251,21.2004405286ZM1272.3017621145,194.3832599119h34.140969163v-76.5418502203c0-23.127753304,13.7665198238-36.3436123348,32.7643171806-36.3436123348,15.6938325991,0,21.7511013216,10.7378854626,21.7511013216,29.4603524229v48.1828193833c0,23.127753304,11.563876652,36.0682819383,34.4162995595,36.0682819383,4.6806167401,0,9.9118942731,0,14.5925110132-1.1013215859v-26.9823788546h-1.3766519824c-6.8832599119,0-13.4911894273-1.3766519824-13.4911894273-12.6651982379v-52.3127753304c0-34.9669603524-17.8964757709-51.486784141-45.9801762115-51.486784141-20.3744493392,0-36.3436123348,9.6365638767-42.6762114537,18.9977973568v-15.6938325991h-34.140969163v140.4185022026ZM1207.8744493392,53.9647577093v105.1762114537c0,23.127753304,11.563876652,36.0682819383,34.4162995595,36.0682819383,4.6806167401,0,9.9118942731,0,14.5925110132-1.1013215859v-26.9823788546h-1.3766519824c-6.8832599119,0-13.4911894273-1.3766519824-13.4911894273-12.6651982379V53.9647577093h-34.140969163ZM1119.218061674,166.8502202643c-20.9251101322,0-36.0682819383-16.5198237885-36.0682819383-42.6762114537s15.1431718062-42.6762114537,36.0682819383-42.6762114537,36.0682819383,16.5198237885,36.0682819383,42.6762114537-15.1431718062,42.6762114537-36.0682819383,42.6762114537ZM1119.218061674,197.6872246696c41.2995594714,0,70.7599118943-30.0110132159,70.7599118943-73.513215859s-29.4603524229-73.513215859-70.7599118943-73.513215859-70.7599118943,30.0110132159-70.7599118943,73.513215859,29.4603524229,73.513215859,70.7599118943,73.513215859ZM947.4118942731,91.9603524229v-59.4713656388h29.4603524229c22.8524229075,0,33.59030837,11.2885462555,33.59030837,29.7356828194,0,16.5198237885-9.0859030837,29.7356828194-33.59030837,29.7356828194h-29.4603524229ZM912.7202643172,194.3832599119h34.6916299559v-71.5859030837h31.1123348018c42.9515418502,0,67.1806167401-24.7797356828,67.1806167401-60.5726872247S1021.4757709251,1.6519823789,978.5242290749,1.6519823789h-65.8039647577v192.731277533ZM820.2092511013,164.0969162996c-18.7224669604,0-34.6916299559-14.5925110132-34.6916299559-41.2995594714s15.9691629956-41.2995594714,34.6916299559-41.2995594714,34.6916299559,14.5925110132,34.6916299559,41.2995594714-15.9691629956,41.2995594714-34.6916299559,41.2995594714ZM560.0220264317,42.4008810573c11.563876652,0,21.4757709251-9.0859030837,21.4757709251-21.2004405286s-9.9118942731-21.2004405286-21.4757709251-21.2004405286-21.4757709251,9.0859030837-21.4757709251,21.2004405286,9.9118942731,21.2004405286,21.4757709251,21.2004405286ZM730.4515418502,195.2092511013c4.6806167401,0,9.9118942731,0,14.5925110132-1.1013215859v-26.9823788546h-1.3766519824c-6.8832599119,0-13.4911894273-1.3766519824-13.4911894273-12.6651982379v-52.3127753304c0-34.9669603524-17.8964757709-51.486784141-45.9801762115-51.486784141-20.3744493392,0-36.3436123348,9.6365638767-42.6762114537,18.9977973568v-15.6938325991h-34.140969163v140.4185022026h34.140969163v-76.5418502203c0-23.127753304,13.7665198238-36.3436123348,32.7643171806-36.3436123348,15.6938325991,0,21.7511013216,10.7378854626,21.7511013216,29.4603524229v48.1828193833c0,23.127753304,11.563876652,36.0682819383,34.4162995595,36.0682819383ZM542.9515418502,53.9647577093v105.1762114537c0,23.127753304,11.563876652,36.0682819383,34.4162995595,36.0682819383,4.6806167401,0,9.9118942731,0,14.5925110132-1.1013215859v-26.9823788546h-1.3766519824c-6.8832599119,0-13.4911894273-1.3766519824-13.4911894273-12.6651982379V53.9647577093h-34.140969163ZM447.4118942731,194.3832599119h34.140969163v-71.3105726872c0-29.4603524229,13.4911894273-38.5462555066,36.3436123348-38.5462555066,2.7533039648,0,5.781938326.2753303965,7.1585903084.550660793v-32.4889867841c-1.9273127753-.2753303965-3.5792951542-.2753303965-5.231277533-.2753303965-20.9251101322,0-31.9383259912,8.2599118943-38.5462555066,17.345814978v-15.6938325991h-33.8656387665v140.4185022026ZM355.4515418502,169.0528634361c-9.9118942731,0-20.0991189427-4.9559471366-20.0991189427-16.5198237885,0-15.9691629956,15.4185022026-22.3017621145,52.3127753304-22.3017621145,0,25.8810572687-11.563876652,38.8215859031-32.2136563877,38.8215859031ZM352.1475770925,197.6872246696c22.0264317181,0,34.6916299559-8.5352422907,41.5748898678-16.795154185,2.4779735683,6.6079295154,9.9118942731,14.3171806167,25.6057268722,14.3171806167,3.3039647577,0,8.2599118943-.2753303965,12.9405286344-1.6519823789v-27.2577092511c-4.1299559471,0-12.1145374449.8259911894-12.1145374449-13.7665198238v-41.2995594714c0-45.4295154185-26.1563876652-60.5726872247-62.7753303965-60.5726872247-29.1850220264,0-48.7334801762,14.3171806167-55.3414096916,19.5484581498l16.2444933921,26.4317180617c6.6079295154-5.231277533,20.6497797357-15.1431718062,39.0969162996-15.1431718062,17.8964757709,0,28.359030837,6.8832599119,29.7356828194,21.7511013216-21.2004405286,0-86.4537444934-.8259911894-86.4537444934,49.5594713656,0,29.1850220264,23.6784140969,44.8788546256,51.486784141,44.8788546256ZM190.5286343612,105.4515418502c4.4052863436-16.795154185,17.6211453744-25.0550660793,33.0396475771-25.0550660793,13.2158590308,0,27.2577092511,6.3325991189,28.6343612335,25.0550660793h-61.6740088106ZM226.872246696,197.6872246696c29.7356828194,0,51.7621145374-15.9691629956,61.6740088106-29.1850220264l-24.2290748899-21.2004405286c-6.3325991189,7.9845814978-17.8964757709,19.5484581498-37.4449339207,19.5484581498-21.4757709251,0-36.3436123348-14.8678414097-37.4449339207-33.8656387665h96.3656387665c.8259911894-5.781938326,1.1013215859-9.9118942731,1.1013215859-17.8964757709,0-33.8656387665-19.5484581498-64.4273127753-63.3259911894-64.4273127753-39.922907489,0-68.5572687225,31.1123348018-68.5572687225,74.063876652,0,42.1255506608,29.4603524229,72.9625550661,71.8612334802,72.9625550661ZM34.6916299559,79.295154185v-46.8061674009h41.2995594714c17.345814978,0,25.8810572687,9.0859030837,25.8810572687,23.4030837004s-8.8105726872,23.4030837004-25.6057268722,23.4030837004h-41.5748898678ZM34.6916299559,163.5462555066v-53.4140969163h43.2268722467c19.5484581498,0,30.2863436123,9.9118942731,30.2863436123,26.7070484582s-10.1872246696,26.7070484581-30.2863436123,26.7070484581h-43.2268722467ZM0,194.3832599119h77.0925110132c44.0528634361,0,66.3546255507-22.8524229075,66.3546255507-56.718061674,0-19.2731277533-8.2599118943-36.6189427313-24.5044052863-45.704845815,12.1145374449-9.0859030837,17.6211453744-22.8524229075,17.6211453744-37.9955947137,0-30.2863436123-20.3744493392-52.3127753304-61.3986784141-52.3127753304H0v192.731277533ZM819.3832599119,250c26.4317180617,0,68.5572687225-14.0418502203,68.5572687225-63.050660793V53.9647577093h-34.140969163v13.2158590308c-7.1585903084-9.0859030837-17.8964757709-16.5198237885-37.9955947137-16.5198237885-34.9669603524,0-64.9779735683,28.0837004405-64.9779735683,72.1365638767s30.0110132159,72.1365638767,64.9779735683,72.1365638767c20.0991189427,0,30.8370044053-7.1585903084,37.9955947137-16.5198237885v9.0859030837c0,20.6497797357-14.8678414097,31.6629955947-34.4162995595,31.6629955947-21.4757709251,0-35.2422907489-12.1145374449-41.0242290749-18.7224669604l-25.3303964758,21.2004405286c5.781938326,6.6079295154,25.3303964758,28.359030837,66.3546255507,28.359030837Z"/>
  </g>
</svg>