<svg width="167" height="167" xmlns="http://www.w3.org/2000/svg" xmlns:xlink="http://www.w3.org/1999/xlink" xml:space="preserve" overflow="hidden"><g transform="translate(-127 -109)"><path d="M271.532 229.031C272.514 227.266 273.125 225.277 273.125 223.492L273.125 161.507C273.125 159.722 272.515 157.734 271.532 155.969L210.5 192.5 271.532 229.031Z" fill="#7F3A86"/><path d="M215.925 264.223 267.703 233.231C269.195 232.338 270.551 230.796 271.533 229.031L210.502 192.5 149.47 229.031C150.453 230.796 151.809 232.338 153.3 233.231L205.078 264.223C208.061 266.009 212.942 266.009 215.925 264.223Z" fill="#662579"/><path d="M271.532 155.969C270.549 154.203 269.193 152.662 267.702 151.769L215.923 120.777C212.941 118.991 208.059 118.991 205.077 120.777L153.298 151.769C150.315 153.554 147.875 157.937 147.875 161.507L147.875 223.492C147.875 225.277 148.485 227.266 149.468 229.031L210.5 192.5 271.532 155.969Z" fill="#9A5196"/><path d="M210.701 234.25C187.569 234.25 168.75 215.521 168.75 192.5 168.75 169.479 187.569 150.75 210.701 150.75 225.352 150.75 239.033 158.451 246.609 170.904L228.643 181.679C224.847 175.466 218.014 171.625 210.701 171.625 199.135 171.625 189.726 180.99 189.726 192.5 189.726 204.01 199.135 213.375 210.701 213.375 217.995 213.375 224.81 209.555 228.613 203.372L246.616 214.084C239.042 226.544 225.356 234.25 210.701 234.25Z" fill="#FFFFFF"/><path d="M257.469 176.844 257.469 182.049 247.031 182.049 247.031 176.844 241.813 176.844 241.813 182.049 236.594 182.049 236.594 187.281 241.813 187.281 241.813 197.692 236.594 197.692 236.594 202.938 241.813 202.938 241.813 208.156 247.031 208.156 247.031 202.938 257.469 202.938 257.469 208.156 262.687 208.156 262.687 202.938 267.906 202.938 267.906 197.719 262.687 197.719 262.687 187.281 267.906 187.281 267.906 182.049 262.687 182.049 262.687 176.844 257.469 176.844ZM257.469 197.719 257.469 187.281 247.031 187.281 247.031 197.692 257.469 197.719Z" fill="#FFFFFF" fill-rule="evenodd"/></g></svg>